<svg width="366" height="285" viewBox="0 0 366 285" fill="none" xmlns="http://www.w3.org/2000/svg">
<path d="M120.94 33.2811H5.22963V174.975H120.94V33.2811Z" fill="#6F68F1"/>
<path d="M286.008 72.0441H170.298V213.734H286.008V72.0441Z" fill="#6F68F1"/>
<path d="M252.514 115.944C252.886 114.884 253.47 113.898 253.767 112.816C254.165 111.367 254.02 109.832 253.849 108.339C253.831 107.685 253.644 107.047 253.306 106.485C252.8 105.796 251.915 105.511 251.234 105.003C249.576 103.761 249.345 101.463 248.765 99.4911C248.006 96.9395 246.497 94.6734 244.431 92.9861C243.13 91.9297 241.274 91.1069 239.804 91.926C239.183 92.2707 238.729 92.8712 238.093 93.1863C237.268 93.5977 236.323 93.4717 235.382 93.4198C235.263 93.2776 235.116 93.1615 234.95 93.0788C234.065 92.6562 232.41 93.1529 231.577 93.4976C230.874 93.7513 230.285 94.2452 229.914 94.8913C229.835 95.0574 229.774 95.2313 229.732 95.4102C229.62 95.855 229.583 96.322 229.446 96.7668C229.335 97.1003 229.178 97.4171 228.981 97.7082C228.426 98.5274 227.612 99.2131 227.05 100.047C226.788 100.438 226.578 100.862 226.425 101.307C226.019 102.618 225.864 103.994 225.968 105.362C226.042 107.216 226.265 109.069 225.815 110.866C225.674 111.419 225.473 111.978 225.306 112.512C225.276 112.601 225.243 112.698 225.216 112.786L225.15 113.053C225.12 113.183 225.09 113.313 225.068 113.443C225.023 113.709 224.997 113.98 224.978 114.254C224.978 114.388 224.978 114.525 224.978 114.662C224.978 114.936 224.978 115.211 224.945 115.485C224.931 115.893 224.876 116.299 224.781 116.697C224.662 117.144 224.484 117.574 224.253 117.976C223.996 118.435 223.695 118.869 223.398 119.299L222.401 120.741C221.218 120.648 220.013 120.667 219.001 121.234C218.067 121.806 217.378 122.7 217.063 123.747C216.981 123.776 216.904 123.82 216.836 123.876C216.632 124.047 216.409 124.659 216.193 125.429C216.193 125.429 216.193 125.429 216.193 125.448C215.754 127.038 215.356 129.299 215.226 129.803C214.928 130.915 214.694 132.075 214.482 133.224C214.058 135.578 213.768 137.954 213.366 140.311C213.284 140.793 212.752 143.984 212.228 145.815C212.228 145.864 212.206 145.908 212.191 145.953C211.986 146.635 211.789 147.098 211.618 147.098H211.86H212.139C212.046 147.317 211.956 147.543 211.875 147.769C211.709 148.236 211.569 148.711 211.454 149.192C211.453 149.202 211.453 149.212 211.454 149.222C211.125 150.707 210.917 152.217 210.833 153.736C210.169 162.582 210.144 171.463 210.759 180.312C210.792 181.624 211.017 182.923 211.425 184.171C211.664 184.809 212.018 185.398 212.47 185.909L212.537 185.983C212.496 186.161 212.459 186.332 212.414 186.51C211.174 191.973 209.723 197.387 208.062 202.752C208.025 202.867 207.991 202.985 207.951 203.1C207.85 203.434 207.746 203.771 207.642 204.105C207.579 204.32 207.512 204.535 207.452 204.753C207.407 204.894 207.37 205.035 207.333 205.168C207.055 206.139 206.855 207.131 206.734 208.134C206.57 209.992 206.672 211.864 207.039 213.693H218.89C218.89 213.612 218.867 213.534 218.86 213.453C218.629 211.799 218.35 210.08 218.878 208.501C219.217 207.481 219.864 206.599 220.4 205.669C221.516 203.752 222.14 201.592 223.156 199.638C224.644 196.784 226.916 194.297 227.965 191.299C228.077 190.982 228.173 190.66 228.255 190.331C228.977 192.47 228.973 194.638 229.107 196.884C229.444 202.568 230.374 208.202 231.882 213.693H243.848C243.65 210.573 243.371 207.448 243.197 204.338C243.049 202.637 243.083 200.925 243.297 199.231C243.522 197.997 243.835 196.78 244.234 195.591C245.585 191.276 247.013 186.943 247.459 182.451C247.906 177.959 248.225 171.613 245.744 167.818C245.698 167.744 245.645 167.676 245.585 167.614C245.637 167.273 245.637 166.927 245.585 166.587C244.911 160.408 241.363 154.478 242.389 148.343C242.708 146.735 243.195 145.165 243.844 143.658C245.354 139.859 247.035 135.963 247.958 132.009C248.36 130.901 248.652 129.756 248.828 128.591C249.008 127.564 249.102 126.524 249.111 125.481C249.11 125.085 249.076 124.69 249.01 124.299C250.249 124.729 251.461 125.574 252.778 125.741C252.89 125.757 253.003 125.766 253.117 125.77C253.1 125.747 253.085 125.722 253.072 125.696C252.919 125.454 252.833 125.175 252.823 124.888C253.054 124.94 253.292 124.959 253.529 124.944C253.995 124.924 254.447 124.785 254.842 124.54C253.668 123.48 252.824 122.107 252.412 120.583C251.999 119.059 252.034 117.449 252.514 115.944ZM216.435 171.368C216.234 171.791 216.063 172.217 215.877 172.655V172.606C215.283 170.88 215.163 169.027 215.531 167.239C215.561 167.128 215.587 167.017 215.613 166.909C215.639 166.802 215.687 166.628 215.724 166.483C215.848 167.03 216.087 167.545 216.427 167.992C216.766 168.44 217.197 168.81 217.692 169.078C217.584 169.252 217.476 169.422 217.372 169.597C217.023 170.171 216.704 170.762 216.416 171.368H216.435ZM218.097 159.111C217.763 159.771 217.353 160.39 216.948 161.023C217.563 157.756 217.973 154.453 218.175 151.134C218.209 150.597 218.235 150.056 218.257 149.518C218.537 150.759 218.712 152.022 218.782 153.292C218.916 154.956 219.046 156.676 218.48 158.247C218.368 158.545 218.234 158.833 218.079 159.111H218.097Z" fill="url(#paint0_linear)"/>
<path d="M231.071 94.4799C230.376 94.731 229.794 95.2214 229.431 95.8624C229.152 96.4406 229.163 97.1152 228.973 97.7157C228.571 99.0055 227.366 99.8543 226.619 100.977C225.603 102.501 225.503 104.443 225.551 106.274C225.6 108.105 225.845 109.981 225.399 111.745C225.183 112.609 224.811 113.435 224.655 114.314C224.473 115.381 224.625 116.497 224.361 117.546C224.063 118.484 223.601 119.362 222.996 120.14L220.619 123.61C221.684 123.358 222.732 123.042 223.758 122.664C223.442 123.658 222.855 124.545 222.062 125.226L223.781 123.15C224.13 122.673 224.564 122.264 225.06 121.942C225.693 121.571 226.44 121.527 227.147 121.386C228.512 121.108 229.873 120.411 230.543 119.191C231.432 117.564 230.863 115.518 231.361 113.732C231.733 112.427 232.622 111.352 233.239 110.147C234.645 107.427 234.56 104.217 234.999 101.189C235.25 99.9129 235.412 98.6211 235.482 97.3228C235.482 96.3628 235.386 94.5354 234.366 94.0499C233.511 93.6422 231.882 94.1351 231.071 94.4799Z" fill="#192534"/>
<path d="M246.641 182.963C246.202 187.429 244.781 191.736 243.472 196.024C243.076 197.206 242.768 198.415 242.549 199.642C242.339 201.327 242.306 203.028 242.449 204.72C242.616 207.722 242.88 210.732 243.07 213.738H231.25C229.814 208.366 228.925 202.864 228.598 197.314C228.475 195.272 228.471 193.293 227.924 191.343C227.876 191.161 227.82 190.972 227.761 190.798C226.927 194.219 224.35 196.914 222.75 200.065C221.75 202.018 221.129 204.142 220.043 206.058C219.514 206.985 218.875 207.863 218.555 208.871C218.038 210.432 218.309 212.126 218.533 213.753H206.861C206.534 212.026 206.448 210.262 206.604 208.512C206.76 207.254 207.03 206.014 207.411 204.805C207.471 204.587 207.538 204.372 207.601 204.157C207.705 203.823 207.809 203.486 207.91 203.152C209.593 197.659 211.061 192.099 212.313 186.473C212.351 186.298 212.392 186.102 212.429 185.943C212.642 184.979 212.848 184.014 213.046 183.048C213.727 179.73 214.378 176.306 215.613 173.174C215.691 172.984 215.765 172.803 215.847 172.606C216.022 172.188 216.219 171.772 216.416 171.368C216.71 170.774 217.035 170.197 217.391 169.637C217.726 169.104 218.092 168.59 218.488 168.099C225.023 167.536 231.807 164.285 238.201 165.794C239.264 166.025 240.279 166.439 241.199 167.017C242.293 167.721 243.985 167.31 244.815 168.21C244.872 168.274 244.924 168.343 244.971 168.414C247.392 172.188 247.08 178.496 246.641 182.963Z" fill="#192534"/>
<path d="M230.018 116.285C229.877 117.879 229.542 119.755 228.088 120.422C227.266 120.793 226.306 120.663 225.414 120.793C223.725 121.067 222.341 122.36 221.556 123.873C220.772 125.385 220.508 127.109 220.325 128.802C220.098 130.923 220.024 133.224 221.192 135.011C222.137 136.46 223.77 137.339 225.443 137.787C227.127 138.225 228.888 138.288 230.599 137.971C232.31 137.655 233.93 136.967 235.345 135.956C236.694 134.904 237.917 133.7 238.99 132.368C241.415 129.555 243.859 126.471 244.353 122.794C244.413 122.375 244.409 121.871 244.063 121.623C243.827 121.491 243.555 121.437 243.286 121.471L240.957 121.512C240.366 121.512 239.7 121.512 239.302 121.071C238.904 120.63 238.93 120.07 238.93 119.529L239.109 112.809C239.146 112.572 239.091 112.329 238.956 112.13C238.809 111.996 238.62 111.915 238.421 111.901C237.141 111.686 235.817 111.901 234.545 111.552C233.351 111.226 231.48 109.858 230.602 111.263C229.866 112.479 230.141 114.933 230.018 116.285Z" fill="#FFC1C7"/>
<path opacity="0.1" d="M230.018 116.285C229.877 117.879 229.542 119.755 228.088 120.422C227.266 120.793 226.306 120.663 225.414 120.793C223.725 121.067 222.341 122.36 221.556 123.873C220.772 125.385 220.508 127.109 220.325 128.802C220.098 130.923 220.024 133.224 221.192 135.011C222.137 136.46 223.77 137.339 225.443 137.787C227.127 138.225 228.888 138.288 230.599 137.971C232.31 137.655 233.93 136.967 235.345 135.956C236.694 134.904 237.917 133.7 238.99 132.368C241.415 129.555 243.859 126.471 244.353 122.794C244.413 122.375 244.409 121.871 244.063 121.623C243.827 121.491 243.555 121.437 243.286 121.471L240.957 121.512C240.366 121.512 239.7 121.512 239.302 121.071C238.904 120.63 238.93 120.07 238.93 119.529L239.109 112.809C239.146 112.572 239.091 112.329 238.956 112.13C238.809 111.996 238.62 111.915 238.421 111.901C237.141 111.686 235.817 111.901 234.545 111.552C233.351 111.226 231.48 109.858 230.602 111.263C229.866 112.479 230.141 114.933 230.018 116.285Z" fill="black"/>
<path d="M235.877 115.852C240.786 115.852 244.766 111.886 244.766 106.993C244.766 102.101 240.786 98.1345 235.877 98.1345C230.967 98.1345 226.987 102.101 226.987 106.993C226.987 111.886 230.967 115.852 235.877 115.852Z" fill="#FFC1C7"/>
<path d="M226.34 131.623C224.904 131.653 223.282 131.252 222.587 129.996C222.111 129.136 222.192 128.091 222.282 127.116L222.799 121.66C221.404 121.515 219.905 121.389 218.685 122.079C217.071 122.991 216.487 125.014 216.304 126.857C215.966 130.315 216.517 133.806 216.327 137.276C216.167 140.196 215.494 143.206 216.353 145.986C216.725 147.15 217.327 148.21 217.718 149.377C218.152 150.862 218.402 152.395 218.462 153.94C218.596 155.593 218.722 157.302 218.168 158.866C217.703 160.178 216.799 161.279 216.152 162.51C215.092 164.541 214.865 167.276 216.457 168.926C217.911 170.434 220.325 170.497 222.367 170.038C224.409 169.578 226.369 168.652 228.464 168.555C232.161 168.399 235.456 170.779 239.075 171.565C239.56 171.698 240.07 171.716 240.563 171.617C240.997 171.477 241.401 171.257 241.753 170.968L243.732 169.552C244.127 169.315 244.456 168.982 244.688 168.585C244.857 168.144 244.9 167.666 244.811 167.202C244.149 161.061 240.66 155.16 241.668 149.062C241.983 147.466 242.463 145.906 243.1 144.407C245.611 138.01 248.62 131.36 247.645 124.558C247.429 123.054 246.987 121.512 245.945 120.4C244.904 119.288 243.144 118.732 241.794 119.443C240.444 120.155 239.957 121.741 239.373 123.124C238.222 125.798 236.399 128.132 234.08 129.9C233.098 130.641 231.915 131.605 230.632 131.642C229.234 131.69 227.768 131.597 226.34 131.623Z" fill="#F2F2F2"/>
<path d="M213.448 145.386C211.294 147.769 210.87 151.201 210.632 154.404C209.982 163.198 209.958 172.026 210.562 180.824C210.593 182.128 210.814 183.42 211.22 184.66C211.677 185.88 212.54 187.01 213.753 187.496C214.53 187.807 215.613 187.725 215.985 186.966C216.308 186.269 215.828 185.483 215.464 184.819C214.635 183.263 214.358 181.474 214.679 179.742C215.122 180.068 215.274 180.642 215.401 181.176L216.096 184.141C217.052 184 217.409 182.84 217.562 181.891C217.841 180.171 218.108 178.344 217.417 176.747C217.045 175.894 216.431 175.168 216.063 174.319C215.133 172.176 214.765 169.73 215.363 167.473C217.378 159.859 218.256 151.991 217.967 144.122C216.583 144.896 215.034 145.329 213.448 145.386Z" fill="#FFC1C7"/>
<path d="M211.413 147.795C214.067 147.821 216.707 148.169 219.276 148.829C219.615 147.161 219.451 145.434 219.276 143.74L218.161 132.094C218.079 131.227 218.235 123.309 216.561 124.707C215.944 125.222 215.166 129.855 214.973 130.6C214.683 131.712 214.452 132.857 214.229 133.999C213.812 136.342 213.526 138.703 213.113 141.041C213.016 141.723 212.012 147.799 211.413 147.795Z" fill="#F2F2F2"/>
<path d="M232.488 95.7327C232.476 95.4567 232.539 95.1826 232.67 94.9395C232.786 94.7946 232.93 94.675 233.094 94.5883C233.257 94.5016 233.438 94.4495 233.623 94.4354C234.906 94.2389 236.312 94.7541 237.472 94.1685C238.101 93.8535 238.543 93.2604 239.157 92.9157C240.6 92.104 242.423 92.9157 243.702 93.9721C245.74 95.655 247.225 97.9079 247.965 100.44C248.53 102.397 248.761 104.684 250.39 105.918C251.063 106.43 251.934 106.711 252.425 107.401C252.762 107.962 252.948 108.6 252.964 109.254C253.131 110.737 253.273 112.268 252.882 113.702C252.588 114.777 252.008 115.755 251.651 116.812C251.166 118.309 251.121 119.913 251.521 121.435C251.921 122.956 252.749 124.332 253.909 125.4C253.317 125.771 252.602 125.895 251.919 125.745C251.933 126.057 252.034 126.36 252.209 126.619C250.126 126.556 248.318 124.536 246.284 124.977C244.733 125.311 243.866 126.912 242.706 127.994C241.218 129.395 238.893 129.981 237.018 129.151C235.144 128.321 234.006 125.963 234.787 124.08C235.691 121.934 238.484 121.089 239.455 118.969C240.199 117.327 239.648 115.414 239.808 113.617C239.946 112.075 240.615 110.652 241.032 109.147C241.448 107.642 241.582 105.952 240.734 104.654C239.838 103.279 238.131 102.742 236.546 102.23C233.035 101.07 232.354 99.2947 232.488 95.7327Z" fill="#192534"/>
<path d="M234.671 127.572C234.419 126.334 234.169 125.018 234.616 123.839C235.445 121.638 238.164 120.952 240.046 119.536C241.136 118.711 241.974 117.6 242.464 116.326C242.806 115.429 242.836 114.202 242.01 113.732C241.683 113.578 241.321 113.515 240.961 113.55C238.03 113.617 235.345 115.207 233.098 117.082C231.789 118.176 230.547 119.429 229.896 121C229.486 122.134 229.235 123.319 229.152 124.521L228.694 128.495C228.387 130.767 228.209 133.056 228.162 135.348C228.16 136.66 228.242 137.972 228.408 139.273C228.527 140.2 228.702 141.153 229.245 141.912C230.26 143.325 232.22 143.64 233.954 143.688C234.613 143.727 235.275 143.686 235.925 143.566C238.819 142.939 241.017 138.895 238.826 136.397C237.893 135.337 236.494 135.311 235.966 133.854C235.259 131.923 235.073 129.592 234.671 127.572Z" fill="#FFC1C7"/>
<path d="M237.026 128.265L234.738 131.99C234.601 132.182 234.506 132.4 234.459 132.631C234.396 133.117 234.757 133.543 235.047 133.94C237.018 136.62 236.535 140.311 235.925 143.577C239.069 142.584 241.87 140.729 244.005 138.223C246.139 135.718 247.522 132.663 247.995 129.41C248.285 127.464 248.739 124.255 247.013 122.987C242.836 119.936 238.986 125.081 237.026 128.265Z" fill="#F2F2F2"/>
<path d="M225.402 120.804C226.295 120.663 227.262 120.804 228.077 120.433C229.531 119.766 229.866 117.89 230.007 116.297C230.007 116.152 230.03 115.989 230.033 115.818C229.515 115.276 228.95 114.78 228.345 114.336C227.798 114.025 227.217 113.777 226.615 113.595L225.03 113.016C224.874 113.445 224.75 113.885 224.659 114.332C224.476 115.4 224.629 116.515 224.365 117.564C224.067 118.503 223.605 119.381 223 120.159L220.623 123.628C221.054 123.524 221.478 123.409 221.906 123.287C222.285 122.655 222.792 122.108 223.394 121.681C223.995 121.254 224.679 120.955 225.402 120.804Z" fill="#192534"/>
<path d="M282.917 172.384C282.917 172.384 267.433 164.834 270.409 170.579C273.384 176.324 282.917 176.973 282.917 176.973V172.384Z" fill="#FFC1C7"/>
<path d="M267.928 166.965L267.433 167.951L279.127 174.022L279.622 173.04L267.928 166.965Z" fill="#192534"/>
<path d="M293.622 172.054C293.622 172.054 292.633 174.519 288.846 173.04C286.703 172.166 284.408 171.72 282.092 171.728C282.092 171.728 279.622 176.65 282.092 178.455C284.561 180.26 294.939 183.381 295.27 181.576C295.601 179.771 293.622 172.054 293.622 172.054Z" fill="#6F68F1"/>
<path opacity="0.1" d="M293.622 172.054C293.622 172.054 292.633 174.519 288.846 173.04C286.703 172.166 284.408 171.72 282.092 171.728C282.092 171.728 279.622 176.65 282.092 178.455C284.561 180.26 294.939 183.381 295.27 181.576C295.601 179.771 293.622 172.054 293.622 172.054Z" fill="black"/>
<path d="M301.281 143.41C307.012 143.41 311.658 138.78 311.658 133.069C311.658 127.357 307.012 122.727 301.281 122.727C295.549 122.727 290.903 127.357 290.903 133.069C290.903 138.78 295.549 143.41 301.281 143.41Z" fill="#FF6584"/>
<path d="M293.54 152.439V150.634C293.54 150.634 296.01 147.517 298.811 149.652C301.611 151.787 297.323 159.17 297.323 159.17L294.213 157.365L293.54 152.439Z" fill="#6F68F1"/>
<path d="M302.683 274.203L299.551 277.817C299.551 277.817 305.153 279.129 305.316 279.299C305.48 279.47 311.081 278.806 311.081 278.806L310.579 273.054L302.683 274.203Z" fill="#FFC1C7"/>
<path d="M314.541 270.867L316.028 277.105L322.452 275.623L325.747 270.533C325.747 270.533 323.441 268.891 322.772 267.249C322.102 265.607 314.541 270.867 314.541 270.867Z" fill="#FFC1C7"/>
<path d="M315.366 222.337L314.708 233.005C313.896 234.751 313.721 236.725 314.213 238.587C315.035 241.704 314.708 254.836 314.708 254.836C314.708 254.836 313.555 272.891 313.22 274.04C312.885 275.189 311.732 275.682 312.562 276.668C312.562 276.668 301.526 279.129 301.69 275.026C301.69 275.026 303.177 272.235 303.177 269.61C303.177 266.986 303.672 252.538 303.672 252.538L307.622 215.606L315.366 222.337Z" fill="#3F3D56"/>
<path opacity="0.1" d="M315.366 222.337L314.708 233.005C313.896 234.751 313.721 236.725 314.213 238.587C315.035 241.704 314.708 254.836 314.708 254.836C314.708 254.836 313.555 272.891 313.22 274.04C312.885 275.189 311.732 275.682 312.562 276.668C312.562 276.668 301.526 279.129 301.69 275.026C301.69 275.026 303.177 272.235 303.177 269.61C303.177 266.986 303.672 252.538 303.672 252.538L307.622 215.606L315.366 222.337Z" fill="black"/>
<path d="M298.071 195.198C298.071 195.198 293.458 222.448 293.607 231.151C293.756 239.854 296.077 244.773 296.077 244.773L308.433 261.515C308.246 261.97 308.178 262.465 308.235 262.953C308.292 263.441 308.473 263.907 308.76 264.306C309.75 265.789 310.081 266.934 310.081 267.917C310.081 268.899 312.056 269.559 312.714 270.882C313.373 272.205 315.184 275.971 319.469 273.017C323.754 270.063 325.234 268.914 324.408 266.616C323.583 264.317 321.775 262.842 321.611 261.693C321.448 260.544 317.836 257.738 317.341 254.44C316.847 251.141 308.448 237.697 308.448 237.697C308.448 237.697 316.847 220.955 317.178 217.837C317.509 214.72 318.494 213.39 318.494 213.39C318.494 213.39 323.601 203.704 320.8 199.275C318 194.846 298.071 195.198 298.071 195.198Z" fill="#3F3D56"/>
<path d="M305.316 278.473C305.316 278.473 300.853 277.817 300.853 275.352L294.756 278.799C294.756 278.799 282.731 279.292 287.838 283.395C292.945 287.498 315.363 282.083 315.363 282.083C315.363 282.083 313.719 276.679 312.067 276.175C312.067 276.175 309.091 278.636 305.316 278.473Z" fill="#3F3D56"/>
<path opacity="0.1" d="M305.316 278.473C305.316 278.473 300.853 277.817 300.853 275.352L294.756 278.799C294.756 278.799 282.731 279.292 287.838 283.395C292.945 287.498 315.363 282.083 315.363 282.083C315.363 282.083 313.719 276.679 312.067 276.175C312.067 276.175 309.091 278.636 305.316 278.473Z" fill="black"/>
<path d="M325.413 269.718C325.413 269.718 320.622 276.449 316.352 274.644C316.352 274.644 313.867 272.12 312.971 273.532C312.074 274.944 310.096 278.895 307.953 279.388C305.811 279.881 298.234 282.354 305.647 284.314C313.06 286.275 327.06 279.718 328.377 277.09C329.694 274.462 325.413 269.718 325.413 269.718Z" fill="#3F3D56"/>
<path d="M294.957 146.672C295.51 147.456 295.97 148.3 296.33 149.188C296.686 150.087 296.709 151.083 296.397 151.998C296.237 152.417 295.98 152.795 295.813 153.21C295.456 154.188 295.488 155.265 295.902 156.22C296.321 157.164 296.932 158.012 297.699 158.707C297.914 158.956 298.203 159.13 298.524 159.204C298.751 159.206 298.975 159.151 299.175 159.043C299.375 158.935 299.544 158.779 299.666 158.588C300.41 157.647 300.563 156.394 300.812 155.226C301.061 154.059 301.5 152.802 302.538 152.202C303.11 151.922 303.732 151.757 304.368 151.716L306.707 151.416C307.144 151.405 307.566 151.256 307.912 150.99C308.385 150.534 309.594 151.983 309.203 151.457C308.812 150.931 306.904 148.354 306.324 148.047C305.717 147.786 305.194 147.362 304.814 146.824C304.542 146.254 304.415 145.627 304.442 144.996C304.39 143.814 304.282 142.58 303.65 141.579C302.938 140.562 301.87 139.849 300.656 139.581C299.453 139.319 298.222 139.208 296.992 139.251C296.216 139.195 295.436 139.29 294.697 139.533C294.23 139.713 293.825 140.025 293.533 140.43C293.016 141.171 292.417 142.454 292.789 143.336C293.28 144.503 294.251 145.612 294.957 146.672Z" fill="#FFC1C7"/>
<path d="M298.398 145.626C303.673 145.626 307.95 141.365 307.95 136.108C307.95 130.851 303.673 126.59 298.398 126.59C293.123 126.59 288.846 130.851 288.846 136.108C288.846 141.365 293.123 145.626 298.398 145.626Z" fill="#FFC1C7"/>
<path d="M310.918 153.014C310.35 151.826 309.426 150.843 308.273 150.201C307.12 149.559 305.796 149.289 304.483 149.429C301.749 149.726 298.751 150.449 298.398 152.194C297.739 155.478 296.586 159.089 296.586 156.298C296.586 153.507 296.523 151.527 296.523 151.527C296.523 151.527 293.953 149.403 293.458 150.716C292.964 152.028 292.469 157.117 292.633 160.723C292.796 164.33 292.964 175.494 292.964 175.494C292.964 175.494 293.295 186.658 294.28 189.612C294.874 191.578 295.043 193.648 294.775 195.683C294.775 195.683 293.458 196.999 296.586 197.488C299.715 197.978 301.366 195.19 306.469 198.638C311.572 202.085 322.779 203.89 323.27 201.603C323.761 199.316 320.142 189.783 321.132 182.725C322.121 175.668 310.918 153.014 310.918 153.014Z" fill="#6F68F1"/>
<path d="M300.046 194.709C300.046 194.709 297.576 198.645 296.754 198.812C295.932 198.978 295.601 200.617 297.576 199.794C299.551 198.971 298.893 198.975 298.893 198.975C298.893 198.975 297.245 201.603 300.046 202.092C302.846 202.581 304.33 202.919 304.33 201.436C304.33 199.953 303.999 196.021 303.999 196.021L300.046 194.709Z" fill="#FFC1C7"/>
<path opacity="0.1" d="M300.871 152.194C299.791 153.637 299.115 155.34 298.912 157.128C298.71 158.917 298.988 160.727 299.718 162.373C302.188 168.281 307.953 178.622 307.953 178.622C307.953 178.622 310.587 180.105 309.441 181.246C308.296 182.388 308.124 182.069 307.302 183.051C306.48 184.034 300.711 191.261 300.711 191.261C300.711 191.261 297.42 193.23 298.405 195.528C299.391 197.826 303.349 198.812 303.349 198.812C303.573 198.224 303.987 197.728 304.526 197.401C305.065 197.074 305.697 196.935 306.324 197.007C308.63 197.17 312.748 193.723 312.748 193.723C312.748 193.723 319.171 182.725 319.815 181.576C320.458 180.427 321.303 180.094 320.146 177.128C318.989 174.163 310.579 153.18 306.964 152.194C303.349 151.209 300.871 152.194 300.871 152.194Z" fill="black"/>
<path d="M301.53 151.865C300.45 153.307 299.775 155.01 299.572 156.798C299.37 158.587 299.647 160.396 300.377 162.043C302.846 167.951 308.612 178.292 308.612 178.292C308.612 178.292 311.249 179.775 310.099 180.92C308.95 182.065 308.779 181.739 307.957 182.725C307.135 183.711 301.37 190.932 301.37 190.932C301.37 190.932 298.074 192.9 299.064 195.198C300.053 197.496 303.999 198.471 303.999 198.471C304.224 197.883 304.638 197.387 305.177 197.06C305.716 196.734 306.348 196.595 306.975 196.666C309.281 196.829 313.399 193.382 313.399 193.382C313.399 193.382 319.822 182.384 320.484 181.235C321.146 180.086 321.972 179.753 320.812 176.806C319.651 173.859 311.26 152.839 307.633 151.853C304.007 150.868 301.53 151.865 301.53 151.865Z" fill="#6F68F1"/>
<path d="M303.836 143.74C309.339 143.74 313.8 139.294 313.8 133.81C313.8 128.326 309.339 123.88 303.836 123.88C298.333 123.88 293.871 128.326 293.871 133.81C293.871 139.294 298.333 143.74 303.836 143.74Z" fill="#FF6584"/>
<path d="M313.863 128.925C315.173 127.732 314.692 125.083 312.788 123.009C310.885 120.935 308.28 120.221 306.971 121.414C305.661 122.608 306.142 125.257 308.045 127.331C309.949 129.405 312.553 130.119 313.863 128.925Z" fill="#FF6584"/>
<path d="M294.693 131.76C298.605 131.76 301.775 130.29 301.775 128.476C301.775 126.663 298.605 125.192 294.693 125.192C290.782 125.192 287.611 126.663 287.611 128.476C287.611 130.29 290.782 131.76 294.693 131.76Z" fill="#FF6584"/>
<path d="M296.177 140.46C296.997 140.46 297.661 139.467 297.661 138.243C297.661 137.019 296.997 136.027 296.177 136.027C295.358 136.027 294.693 137.019 294.693 138.243C294.693 139.467 295.358 140.46 296.177 140.46Z" fill="#FFC1C7"/>
<path d="M366 284.629H259.622V285H366V284.629Z" fill="#3C354C"/>
<path d="M96.7296 123.969C94.457 124.829 89.1716 124.925 86.8283 124.922C86.1141 124.922 85.6715 124.922 85.6715 124.922L84.1651 121.871L85.6715 119.325C85.6715 119.325 87.0477 118.954 88.8852 118.617C91.593 118.131 95.2976 117.75 97.0681 118.843C100.021 120.633 99.6829 122.831 96.7296 123.969Z" fill="#A0616A"/>
<path opacity="0.1" d="M86.8283 124.903C86.1141 124.903 85.6715 124.903 85.6715 124.903L84.1651 121.853L85.6715 119.306C85.6715 119.306 87.0477 118.936 88.8852 118.598C87.4085 119.684 83.8192 122.045 86.8283 124.903Z" fill="black"/>
<path d="M61.9001 87.4115L62.5659 86.6516C62.5659 86.6516 65.9841 92.0447 66.3449 94.0647C66.7057 96.0848 67.1595 98.4422 67.1595 98.4422C67.1595 98.4422 68.0299 101.089 68.5915 102.26C69.1532 103.431 69.6627 104.547 69.7074 105.058C69.752 105.57 69.5028 106.686 70.574 107.397C71.6452 108.109 71.9019 110.044 71.9019 110.044C71.9019 110.044 75.7851 113.81 77.8271 113.913C79.8691 114.017 85.7422 115.025 85.5376 116.048C85.3331 117.071 87.9888 117.679 89.06 117.931C90.1312 118.183 82.1677 121.241 86.8283 125.159C86.8283 125.159 83.8527 125.771 83.5588 126.482C83.265 127.194 80.1406 126.074 80.1406 126.074C80.1406 126.074 79.4748 124.495 77.165 124.395C74.8552 124.295 73.6947 123.283 73.6947 123.124C73.6947 122.965 71.396 121.697 70.1202 121.341C68.8444 120.985 67.1446 120.833 67.1037 120.478C67.0628 120.122 59.4452 87.3966 59.4452 87.3966L61.9001 87.4115Z" fill="#192534"/>
<path opacity="0.05" d="M61.9001 87.4115L62.5659 86.6516C62.5659 86.6516 65.9841 92.0447 66.3449 94.0647C66.7057 96.0848 67.1595 98.4422 67.1595 98.4422C67.1595 98.4422 68.0299 101.089 68.5915 102.26C69.1532 103.431 69.6627 104.547 69.7074 105.058C69.752 105.57 69.5028 106.686 70.574 107.397C71.6452 108.109 71.9019 110.044 71.9019 110.044C71.9019 110.044 75.7851 113.81 77.8271 113.913C79.8691 114.017 85.7422 115.025 85.5376 116.048C85.3331 117.071 87.9888 117.679 89.06 117.931C90.1312 118.183 82.1677 121.241 86.8283 125.159C86.8283 125.159 83.8527 125.771 83.5588 126.482C83.265 127.194 80.1406 126.074 80.1406 126.074C80.1406 126.074 79.4748 124.495 77.165 124.395C74.8552 124.295 73.6947 123.283 73.6947 123.124C73.6947 122.965 71.396 121.697 70.1202 121.341C68.8444 120.985 67.1446 120.833 67.1037 120.478C67.0628 120.122 59.4452 87.3966 59.4452 87.3966L61.9001 87.4115Z" fill="black"/>
<path d="M78.266 174.979H62.4878C61.6732 173.518 61 172.065 61.1414 171.572C61.4835 170.46 60.9851 168.674 60.9851 168.674C60.9851 168.674 60.4942 167.829 59.899 166.82C59.1737 165.583 58.2959 164.096 57.9984 163.633C57.6264 163.044 56.7189 160.538 56.213 159.096C55.9973 158.484 55.841 158.062 55.841 158.062C55.841 158.062 55.2273 169.282 54.6917 170.427C54.4611 170.92 54.1747 172.896 53.9478 174.979H41.5618C41.4951 174.62 41.3839 174.272 41.2308 173.941C40.658 172.829 41.8036 169.015 41.8036 169.015C41.8036 169.015 40.6878 161.602 40.7324 160.467C40.777 159.333 39.7765 155.923 39.7765 155.923C39.7765 155.923 38.7796 154.17 39.0103 153.633C39.2409 153.095 38.244 151.727 38.5118 151.116C38.7796 150.504 38.2812 148.636 37.7679 147.528C37.5113 146.961 37.1989 145.397 36.9496 144.01C36.9199 143.855 36.8939 143.703 36.8678 143.555C36.6781 142.443 36.5442 141.534 36.5442 141.534L38.5602 139.915L38.6457 139.844L42.8637 136.46L48.6103 134.959L48.96 134.866L58.6307 132.339L62.7705 131.012L63.931 130.641L64.5931 130.426L70.3769 139.507C70.3769 139.507 70.8716 140.293 71.3589 141.26L71.5039 141.553C71.9577 142.498 72.3631 143.551 72.2924 144.203C72.1929 145.033 72.3819 145.872 72.8281 146.579C72.8281 146.579 76.276 157.458 76.1979 160.59C76.1198 163.722 77.4254 170.597 77.4254 170.597C77.4254 170.597 78.2623 173.192 78.266 174.979Z" fill="#192534"/>
<path d="M54.6768 87.7932C54.4313 87.6932 37.7717 80.836 40.0666 79.4757C41.4279 78.664 43.1017 75.2392 44.251 72.5556C45.0544 70.6801 45.5975 69.1678 45.5975 69.1678C45.5975 69.1678 58.9691 66.8031 54.1821 74.9723C53.4274 76.2242 52.8598 77.5789 52.4972 78.9939C51.1247 84.5574 54.5578 87.6894 54.6768 87.7932Z" fill="#A0616A"/>
<path opacity="0.1" d="M54.1747 74.9723C53.42 76.2242 52.8524 77.5789 52.4897 78.9939C50.7931 78.8756 49.161 78.2981 47.7694 77.3235C46.3779 76.349 45.2797 75.0144 44.5932 73.4637C44.4603 73.1675 44.3436 72.8644 44.2436 72.5556C45.047 70.6801 45.5901 69.1678 45.5901 69.1678C45.5901 69.1678 58.9617 66.8031 54.1747 74.9723Z" fill="black"/>
<path d="M62.4878 69.3977C62.4893 71.7524 61.5951 74.0201 59.9853 75.7439C58.3756 77.4677 56.1701 78.5193 53.8131 78.687C51.4562 78.8547 49.1231 78.1258 47.284 76.6474C45.4449 75.1689 44.2365 73.0507 43.9023 70.7197C43.5681 68.3887 44.133 66.0181 45.4831 64.0856C46.8333 62.1531 48.8683 60.8024 51.178 60.3058C53.4878 59.8091 55.9006 60.2033 57.9303 61.409C59.96 62.6146 61.4557 64.5422 62.1159 66.8031C62.3619 67.6461 62.4872 68.5196 62.4878 69.3977Z" fill="#A0616A"/>
<path opacity="0.1" d="M71.5039 141.557C70.5257 142.443 70.1463 144.129 70.1463 144.129C70.1463 144.129 65.5527 147.261 65.8577 145.274C66.1627 143.288 63.4846 135.267 63.4846 135.267L63.7896 146.208C63.7896 146.208 49.0827 145.523 48.0115 144.455C46.9402 143.388 40.658 141.323 40.658 141.323C40.658 141.323 38.735 142.861 36.9645 144.029C36.7302 142.713 36.5591 141.553 36.5591 141.553L42.8823 136.475L58.6604 132.353L64.6116 130.444L70.3955 139.529C70.7986 140.186 71.1685 140.863 71.5039 141.557Z" fill="black"/>
<path d="M71.9874 140.693C70.76 141.457 70.3025 143.517 70.3025 143.517C70.3025 143.517 65.7052 146.649 66.0102 144.663C66.3152 142.676 63.6371 134.655 63.6371 134.655L63.9421 145.571C63.9421 145.571 49.2352 144.885 48.164 143.818C47.0927 142.75 40.8105 140.686 40.8105 140.686C40.8105 140.686 35.3726 145.037 34.3757 144.655C33.3789 144.274 36.1351 136.872 36.1351 136.872L38.9693 93.505C38.9693 93.505 38.2068 80.6063 39.3413 80.1615C39.5194 80.0914 39.6832 79.9897 39.8248 79.8612C40.5687 79.1829 40.8105 77.8078 40.8737 76.6514C40.9518 75.2762 42.7893 75.962 42.7893 75.962L41.718 77.3371L51.2102 83.0896L51.2921 83.1378C51.6625 82.9444 52.0437 82.7724 52.434 82.6226C53.2746 82.3001 54.3904 81.9999 55.1232 82.3001C55.5322 82.5062 55.8789 82.8171 56.1274 83.2008C56.6688 84.0068 57.1039 84.8788 57.4218 85.7954L60.8661 91.5962C60.8661 91.5962 62.6291 99.3058 62.6291 99.6134C62.6291 99.9211 63.1648 106.941 63.7785 107.705C64.3922 108.468 65.0059 112.282 64.7753 113.428C64.5447 114.573 65.1473 118.847 65.1473 118.847C67.6728 120.908 68.9746 127.931 68.9746 127.931C68.9746 127.931 72.9582 135.793 73.267 136.712C73.5757 137.631 73.2112 139.93 71.9874 140.693Z" fill="#F2F2F2"/>
<path opacity="0.1" d="M51.2214 83.3936C50.2878 84.7687 47.6023 86.6998 47.6023 86.6998L39.836 80.1652C40.5799 79.4869 40.8217 78.1117 40.8849 76.9553C40.963 75.5802 42.8004 76.2696 42.8004 76.2696L42.5773 76.555C42.4708 76.692 42.3945 76.8499 42.3535 77.0183C42.3125 77.1867 42.3076 77.3618 42.3392 77.5322C42.3708 77.7026 42.4382 77.8644 42.5369 78.0071C42.6356 78.1498 42.7634 78.2701 42.912 78.3601L51.2214 83.3936Z" fill="black"/>
<path d="M51.2214 83.0896C50.2878 84.4611 47.6023 86.3959 47.6023 86.3959L39.836 79.8612C40.5799 79.1829 40.8217 77.8078 40.8849 76.6514C40.963 75.2762 42.8004 75.962 42.8004 75.962L42.5773 76.2474C42.4708 76.3844 42.3945 76.5422 42.3535 76.7106C42.3125 76.879 42.3076 77.0542 42.3392 77.2246C42.3708 77.395 42.4382 77.5568 42.5369 77.6995C42.6356 77.8421 42.7634 77.9624 42.912 78.0524L51.2214 83.0896Z" fill="#F2F2F2"/>
<path opacity="0.1" d="M54.8107 84.1164C53.8065 85.3136 52.3893 86.6665 52.4526 85.9696C52.5158 85.2728 51.6045 83.7902 51.0243 83.1193C51.9339 82.8317 52.9144 82.8591 53.8065 83.1971C54.2179 83.4083 54.5647 83.7258 54.8107 84.1164Z" fill="black"/>
<path d="M54.9632 83.6604C53.9627 84.8539 52.5418 86.2105 52.6051 85.5322C52.6683 84.8539 51.8612 83.7531 51.2698 83.0822C52.1104 82.7598 53.2262 82.4558 53.959 82.756C54.3688 82.9627 54.7156 83.275 54.9632 83.6604Z" fill="#F2F2F2"/>
<path d="M52.4526 90.0098C52.7915 90.0098 53.0663 89.7359 53.0663 89.3982C53.0663 89.0604 52.7915 88.7866 52.4526 88.7866C52.1136 88.7866 51.8388 89.0604 51.8388 89.3982C51.8388 89.7359 52.1136 90.0098 52.4526 90.0098Z" fill="#192534"/>
<path d="M57.0982 106.496C57.4372 106.496 57.712 106.223 57.712 105.885C57.712 105.547 57.4372 105.273 57.0982 105.273C56.7593 105.273 56.4845 105.547 56.4845 105.885C56.4845 106.223 56.7593 106.496 57.0982 106.496Z" fill="#192534"/>
<path d="M62.3613 123.187C62.7003 123.187 62.9751 122.913 62.9751 122.575C62.9751 122.238 62.7003 121.964 62.3613 121.964C62.0224 121.964 61.7476 122.238 61.7476 122.575C61.7476 122.913 62.0224 123.187 62.3613 123.187Z" fill="#192534"/>
<path d="M62.5139 141.357C62.8528 141.357 63.1276 141.083 63.1276 140.745C63.1276 140.407 62.8528 140.133 62.5139 140.133C62.1749 140.133 61.9001 140.407 61.9001 140.745C61.9001 141.083 62.1749 141.357 62.5139 141.357Z" fill="#192534"/>
<path d="M55.1604 97.7935C55.4993 97.7935 55.7741 97.5197 55.7741 97.1819C55.7741 96.8442 55.4993 96.5703 55.1604 96.5703C54.8214 96.5703 54.5466 96.8442 54.5466 97.1819C54.5466 97.5197 54.8214 97.7935 55.1604 97.7935Z" fill="#192534"/>
<path d="M59.2965 114.74C59.6354 114.74 59.9102 114.466 59.9102 114.128C59.9102 113.79 59.6354 113.517 59.2965 113.517C58.9575 113.517 58.6827 113.79 58.6827 114.128C58.6827 114.466 58.9575 114.74 59.2965 114.74Z" fill="#192534"/>
<path d="M63.3321 131.382C63.6711 131.382 63.9459 131.108 63.9459 130.771C63.9459 130.433 63.6711 130.159 63.3321 130.159C62.9932 130.159 62.7184 130.433 62.7184 130.771C62.7184 131.108 62.9932 131.382 63.3321 131.382Z" fill="#192534"/>
<path d="M62.4097 143.391C62.7486 143.391 63.0234 143.118 63.0234 142.78C63.0234 142.442 62.7486 142.168 62.4097 142.168C62.0707 142.168 61.796 142.442 61.796 142.78C61.796 143.118 62.0707 143.391 62.4097 143.391Z" fill="#192534"/>
<path opacity="0.1" d="M39.8397 80.2319C39.8397 80.2319 39.9401 79.3127 38.6123 80.8917C37.2844 82.4707 34.7849 83.8569 34.7849 83.8569C34.7849 83.8569 29.1163 87.8266 28.8076 89.6614C28.4989 91.4961 26.6652 99.4318 27.6323 102.078C28.5993 104.725 36.0086 117.394 36.0086 117.394C36.0086 117.394 34.067 119.684 34.5208 122.383C34.9746 125.081 35.5437 128.795 35.287 129.607C35.0304 130.419 35.592 132.457 34.7254 133.169C33.8587 133.88 32.9363 135.104 35.6441 136.734C35.6441 136.734 36.1537 138.106 35.6962 138.414C35.2387 138.721 42.488 141.872 45.3483 140.193C48.2086 138.514 53.3638 125.077 53.468 122.075C53.5721 119.073 51.8909 109.143 50.9573 106.8C50.0237 104.458 47.2787 95.3509 46.122 93.316C44.9652 91.2811 39.8397 80.2319 39.8397 80.2319Z" fill="black"/>
<path d="M39.531 80.2319C39.531 80.2319 39.6351 79.3127 38.3073 80.8917C36.9794 82.4707 34.4762 83.8569 34.4762 83.8569C34.4762 83.8569 28.8076 87.8266 28.5026 89.6614C28.1976 91.4961 26.3565 99.4318 27.3273 102.078C28.298 104.725 35.7073 117.386 35.7073 117.386C35.7073 117.386 33.7657 119.677 34.2195 122.375C34.6733 125.074 35.2387 128.788 34.9857 129.599C34.7328 130.411 35.2907 132.45 34.4241 133.161C33.5574 133.873 32.635 135.096 35.3428 136.727C35.3428 136.727 35.8524 138.098 35.3912 138.406C34.9299 138.714 42.183 141.864 45.0619 140.185C47.9408 138.506 53.0812 125.07 53.1816 122.068C53.282 119.065 51.6008 109.143 50.6821 106.8C49.7634 104.458 47.0035 95.3509 45.8281 93.316C44.6527 91.2811 39.531 80.2319 39.531 80.2319Z" fill="#192534"/>
<path opacity="0.1" d="M37.489 88.8904C37.489 88.8904 41.8817 93.7089 41.7292 96.9299C41.7292 96.9299 41.7813 91.7407 37.489 88.8904Z" fill="black"/>
<path opacity="0.1" d="M43.5667 96.8261C43.5667 96.9818 46.5423 107.972 46.3749 109.347C46.2075 110.722 47.2378 114.792 47.2378 114.792L48.614 114.421C48.614 114.421 47.5428 108.772 47.3382 106.685C47.1337 104.599 43.5667 96.8261 43.5667 96.8261Z" fill="black"/>
<path opacity="0.1" d="M44.742 128.176C44.6379 128.328 37.7456 136.115 39.6872 136.675C41.6288 137.235 44.742 128.176 44.742 128.176Z" fill="black"/>
<path opacity="0.1" d="M39.0735 126.193C38.921 126.297 36.3173 131.794 36.0086 130.318C35.6999 128.843 38.2403 134.336 38.6643 130.267L39.0735 126.193Z" fill="black"/>
<path opacity="0.1" d="M52.3112 81.9665C52.3112 81.9665 55.1604 80.2319 58.7348 84.6797C58.7348 84.6797 61.3385 86.1624 62.1047 86.5108C62.8709 86.8592 63.7375 96.3331 63.7375 96.3331C63.7375 96.3331 65.4225 100.41 64.965 102.745C64.5075 105.081 66.2929 113.124 66.2929 113.124C66.2929 113.124 69.2685 127.579 69.1532 127.983C69.0379 128.387 66.1404 123.454 66.1776 121.011C66.2148 118.569 63.7264 110.937 63.3693 110.477C63.0122 110.018 60.5611 96.941 60.5611 96.941C60.5611 96.941 58.5712 91.3812 57.2916 89.5613C56.0121 87.7414 54.4351 84.2683 53.7693 83.6567C53.2915 83.2458 52.7581 82.9039 52.1848 82.6411L52.3112 81.9665Z" fill="black"/>
<path d="M52.274 81.9666C52.274 81.9666 55.4654 80.2393 59.0398 84.6649C59.0398 84.6649 61.6435 86.1476 62.4097 86.496C63.1759 86.8444 64.0463 96.3183 64.0463 96.3183C64.0463 96.3183 65.7312 100.396 65.27 102.731C64.8088 105.066 66.5979 113.109 66.5979 113.109C66.5979 113.109 69.5735 127.564 69.4582 127.969C69.3429 128.373 66.4454 123.439 66.4826 120.996C66.5198 118.554 64.0314 110.922 63.6743 110.462C63.3173 110.003 60.8624 96.9262 60.8624 96.9262C60.8624 96.9262 58.8724 91.3664 57.5966 89.5465C56.3209 87.7266 54.7363 84.2535 54.0705 83.6419C53.5034 83.1986 52.8644 82.8551 52.181 82.6263L52.274 81.9666Z" fill="#192534"/>
<path d="M66.2929 113.772C66.2929 113.772 72.3705 109.806 75.3052 111.763C78.2399 113.721 83.0418 116.497 78.318 118.506C73.5943 120.515 67.0591 120.137 67.0591 120.137L66.2929 113.772Z" fill="#A0616A"/>
<path opacity="0.1" d="M62.0675 152.068C61.1599 154.007 60.416 163.733 59.9065 166.817C59.1812 165.579 58.3034 164.096 58.0058 163.633C57.6338 163.044 56.7263 160.538 56.2204 159.096C56.7969 157.699 58.3963 153.692 58.3963 152.22C58.3963 150.426 61.3087 148.177 61.3087 148.177C61.8323 148.662 62.1879 149.3 62.3242 149.999C62.4606 150.699 62.3707 151.423 62.0675 152.068Z" fill="black"/>
<path opacity="0.1" d="M62.1159 66.8179C61.9718 66.8969 61.8197 66.9603 61.6621 67.0069C60.9442 67.1997 60.2412 66.7178 59.6015 66.3323C58.9617 65.9469 58.0839 65.6615 57.5334 66.1618C56.8118 66.8105 57.3326 68.2041 56.5924 68.8343C56.12 69.2346 55.3761 69.0974 54.8516 69.4273C54.3272 69.7572 54.1747 70.4688 54.0408 71.0915C53.9069 71.7142 53.6465 72.4148 53.0365 72.5964C52.4265 72.778 51.8649 72.3814 51.2623 72.4037C51.1396 72.4037 50.9945 72.4222 50.8904 72.3332C50.8367 72.2511 50.8155 72.1521 50.8309 72.0553C50.9092 71.3084 50.8436 70.5536 50.6374 69.8313C50.5302 69.4742 50.3298 69.1519 50.0566 68.8973C49.7835 68.6426 49.4474 68.4649 49.0827 68.3821C48.004 68.2153 47.1002 69.153 46.479 70.0352C45.8149 70.9651 45.2099 71.9357 44.6676 72.9411C44.6416 72.993 44.6118 73.0634 44.5784 73.145C44.0619 71.9771 43.7918 70.7158 43.7849 69.4396C43.7779 68.1633 44.0342 66.8992 44.5379 65.7258C45.0416 64.5523 45.7819 63.4946 46.7129 62.6181C47.6439 61.7416 48.7457 61.0652 49.95 60.6307C51.1542 60.1962 52.4352 60.013 53.7135 60.0925C54.9918 60.1719 56.24 60.5122 57.3808 61.0924C58.5216 61.6726 59.5305 62.4801 60.3451 63.4651C61.1596 64.45 61.7623 65.5912 62.1159 66.8179Z" fill="black"/>
<path d="M46.4939 69.8981C47.1262 69.0159 48.0301 68.0781 49.0976 68.2449C49.4619 68.3284 49.7977 68.5065 50.0707 68.761C50.3438 69.0155 50.5444 69.3375 50.6523 69.6942C50.8584 70.4164 50.9241 71.1713 50.8457 71.9181C50.8373 71.9663 50.8386 72.0157 50.8495 72.0634C50.8603 72.1111 50.8805 72.1562 50.909 72.1961C50.9908 72.2851 51.1358 72.2702 51.2586 72.2665C51.8574 72.2443 52.4563 72.6372 53.0328 72.4593C53.6093 72.2814 53.9032 71.5734 54.0371 70.9507C54.171 70.328 54.3086 69.6275 54.8479 69.2902C55.3873 68.9529 56.1163 69.0974 56.5887 68.6971C57.3326 68.067 56.8044 66.6734 57.526 66.021C58.0802 65.5243 58.9617 65.8097 59.5977 66.1952C60.2338 66.5807 60.9405 67.0625 61.6583 66.8698C61.8965 66.7834 62.13 66.6844 62.3576 66.5733C63.4921 66.1433 64.9613 66.8735 65.8986 66.0988C66.2375 65.7612 66.4812 65.3406 66.6053 64.8794C66.8614 64.2558 67.0352 63.6017 67.1223 62.9335C67.2045 62.2585 67.0175 61.5784 66.6016 61.0394C65.9953 60.324 64.9687 60.1461 64.1913 59.6198C63.561 59.1264 63.0373 58.5111 62.6515 57.811C62.2697 57.1102 61.7659 56.4827 61.1637 55.9577C60.5276 55.4759 59.6275 55.2461 58.9319 55.6056C58.7046 55.7612 58.4533 55.8789 58.188 55.954C57.9019 55.9591 57.6204 55.8819 57.3772 55.7316C54.7177 54.4862 51.6268 54.7049 48.7144 55.0756C47.5415 55.1713 46.3907 55.4489 45.3036 55.8984C44.7609 56.1273 44.2742 56.4704 43.8768 56.9041C43.4794 57.3379 43.1808 57.8521 43.0013 58.4115C42.7632 59.3085 42.9455 60.2647 42.6591 61.1654C42.4657 61.7659 42.0677 62.2774 41.8408 62.8667C41.2196 64.4754 41.9635 66.2434 42.2797 67.941C42.6219 69.7943 42.4471 71.7995 43.2393 73.549C43.3955 73.8937 43.5666 74.4979 43.9572 74.2681C44.2473 74.1013 44.5263 73.1227 44.7011 72.8188C45.2382 71.8096 45.8369 70.8342 46.4939 69.8981Z" fill="#192534"/>
<path opacity="0.1" d="M29.678 99.7283L28.298 103.646C28.298 103.646 31.5675 115.759 33.0999 118.302C34.6324 120.845 36.879 124.106 36.879 124.106C39.4424 125.256 42.2938 125.61 45.0619 125.122C49.4546 124.258 62.2721 121.968 62.2721 121.968C62.2721 121.968 63.347 122.171 63.9086 121.356C64.4703 120.541 67.3789 120.137 67.3789 120.137C67.3789 120.137 70.7488 115.251 66.6127 113.213C66.6127 113.213 66.1032 114.325 63.9086 113.583C61.7141 112.842 61.0483 114.191 61.0483 114.191C61.0483 114.191 57.4739 114.907 55.4691 114.651C53.4643 114.395 48.5248 114.28 48.0301 113.887C47.9007 113.773 47.731 113.714 47.5581 113.723C47.3852 113.733 47.2232 113.811 47.1076 113.939C47.1076 113.939 45.8839 113.48 45.4747 113.024C45.0656 112.568 44.504 113.531 44.504 113.531C44.504 113.531 43.7898 113.124 43.9944 112.616C44.199 112.108 43.3286 110.173 43.3286 110.173C43.1002 109.432 43.048 108.648 43.1761 107.883C43.4327 106.863 41.9003 103.201 41.9003 103.201C41.879 102.583 41.9479 101.965 42.1049 101.367C42.3615 100.451 40.1633 98.6201 40.1633 98.6201C40.1633 98.6201 38.0208 88.2417 33.4682 91.648C28.9155 95.0544 29.678 99.7283 29.678 99.7283Z" fill="black"/>
<path d="M29.3842 99.7283L28.0079 103.646C28.0079 103.646 31.2737 115.759 32.8061 118.302C34.3385 120.845 36.5851 124.106 36.5851 124.106C39.1488 125.255 41.9999 125.609 44.7681 125.122C49.1608 124.258 61.9782 121.968 61.9782 121.968C61.9782 121.968 63.0495 122.171 63.6111 121.356C64.1728 120.541 67.0851 120.137 67.0851 120.137C67.0851 120.137 70.455 115.251 66.3189 113.213C66.3189 113.213 65.8093 114.325 63.6111 113.583C61.4129 112.842 60.7508 114.191 60.7508 114.191C60.7508 114.191 57.1763 114.907 55.1715 114.651C53.1667 114.395 48.2272 114.28 47.7139 113.887C47.5851 113.773 47.416 113.714 47.2438 113.724C47.0715 113.733 46.9102 113.811 46.7952 113.939C46.7952 113.939 45.5715 113.48 45.1623 113.024C44.7532 112.568 44.1915 113.531 44.1915 113.531C44.1915 113.531 43.4774 113.124 43.682 112.616C43.8865 112.108 43.0162 110.173 43.0162 110.173C42.7857 109.432 42.7335 108.648 42.8637 107.883C43.1203 106.863 41.5879 103.201 41.5879 103.201C41.5666 102.583 41.6355 101.965 41.7924 101.367C42.0454 100.451 39.8509 98.6201 39.8509 98.6201C39.8509 98.6201 37.7047 88.2417 33.1557 91.648C28.6068 95.0544 29.3842 99.7283 29.3842 99.7283Z" fill="#192534"/>
<path opacity="0.1" d="M62.5659 116.115C62.5138 116.486 61.3906 117.898 61.7997 118.15C62.2088 118.402 62.8709 118.254 62.2572 119.065C61.6435 119.877 61.6956 121.104 62.1047 120.948C62.5138 120.793 63.1759 118.965 63.1759 118.254C63.1759 117.542 62.5659 116.115 62.5659 116.115Z" fill="black"/>
<path opacity="0.1" d="M47.3978 115.299C47.3978 115.299 47.089 118.861 44.5895 119.881C42.09 120.9 47.3978 115.299 47.3978 115.299Z" fill="black"/>
<path opacity="0.1" d="M42.1867 114.08C42.0342 114.132 38.6123 115.963 40.1447 117.045C41.6771 118.128 42.1867 114.08 42.1867 114.08Z" fill="black"/>
<path opacity="0.1" d="M41.9821 111.534C41.9821 111.534 36.9794 112.553 38.6643 113.417C40.3493 114.28 41.9821 111.534 41.9821 111.534Z" fill="black"/>
<g opacity="0.1">
<path opacity="0.1" d="M50.6635 68.8306C50.5558 68.4733 50.3553 68.1508 50.0823 67.8956C49.8092 67.6405 49.4734 67.4618 49.1087 67.3776C48.0301 67.2145 47.1262 68.1523 46.5051 69.0344C45.8422 69.9652 45.2373 70.9357 44.6937 71.9403C44.53 72.2443 44.251 73.2191 43.9498 73.3896C43.5778 73.6157 43.3881 73.019 43.2319 72.6705C42.4396 70.9173 42.6145 68.9121 42.2723 67.0588C42.0714 65.9765 41.6957 64.8683 41.6139 63.7859C41.4949 65.1166 42.0193 66.5177 42.2723 67.8631C42.6145 69.7164 42.4396 71.7217 43.2319 73.4712C43.3881 73.8159 43.5592 74.42 43.9498 74.1902C44.2399 74.0234 44.5188 73.0486 44.6937 72.7447C45.2325 71.7444 45.8338 70.7788 46.4939 69.8536C47.1262 68.9677 48.0301 68.0299 49.0976 68.1967C49.4619 68.2802 49.7977 68.4583 50.0707 68.7128C50.3438 68.9673 50.5444 69.2893 50.6523 69.646C50.7759 70.0159 50.8448 70.4017 50.8569 70.7913C50.9169 70.1314 50.8513 69.4662 50.6635 68.8306Z" fill="black"/>
<path opacity="0.1" d="M66.6165 63.9972C66.4923 64.4595 66.2487 64.8813 65.9098 65.2204C64.9762 65.9951 63.5032 65.2649 62.3688 65.6948C62.1307 65.7838 61.915 65.9246 61.6695 65.9914C60.9517 66.1804 60.2487 65.6985 59.6089 65.3131C58.9692 64.9276 58.0914 64.6422 57.5371 65.1425C56.8156 65.7949 57.34 67.1886 56.5998 67.8187C56.1275 68.2153 55.3835 68.0818 54.8591 68.408C54.3346 68.7342 54.1821 69.4533 54.0482 70.0723C53.9143 70.6913 53.654 71.3992 53.044 71.5808C52.434 71.7625 51.8686 71.3621 51.2698 71.3844C51.147 71.3844 51.002 71.4066 50.9201 71.314C50.9005 71.2925 50.8853 71.2672 50.8755 71.2398C50.8755 71.4437 50.8755 71.6476 50.8569 71.8514C50.8485 71.8996 50.8498 71.949 50.8606 71.9967C50.8715 72.0444 50.8917 72.0895 50.9201 72.1294C51.002 72.2184 51.147 72.2035 51.2698 72.1998C51.8686 72.1776 52.4674 72.5705 53.044 72.3963C53.6205 72.2221 53.9143 71.5067 54.0482 70.8877C54.1821 70.2687 54.3198 69.5608 54.8591 69.2235C55.3984 68.8862 56.1275 69.0307 56.5998 68.6304C57.3437 68.004 56.8156 66.6066 57.5371 65.958C58.0914 65.4576 58.9729 65.743 59.6089 66.1285C60.245 66.514 60.9517 66.9958 61.6695 66.8031C61.9076 66.7179 62.1411 66.6202 62.3688 66.5103C63.5032 66.0766 64.9725 66.8105 65.9098 66.0321C66.2494 65.695 66.4932 65.2743 66.6165 64.8127C66.8726 64.1891 67.0464 63.5349 67.1335 62.8667C67.1557 62.6399 67.1557 62.4115 67.1335 62.1847C67.0301 62.8063 66.8566 63.4143 66.6165 63.9972Z" fill="black"/>
</g>
<defs>
<linearGradient id="paint0_linear" x1="230.71" y1="213.738" x2="230.71" y2="91.5887" gradientUnits="userSpaceOnUse">
<stop stop-color="#808080" stop-opacity="0.25"/>
<stop offset="0.54" stop-color="#808080" stop-opacity="0.12"/>
<stop offset="1" stop-color="#808080" stop-opacity="0.1"/>
</linearGradient>
</defs>
</svg>
